# xmcd
# 
# Track frame offsets:
#     150
#     28835
#     55675
#     74522
#     105507
#     132145
# 
# Disc length: 2164
# 
# Revision: 2
# Processed by: cddbd v1.5.2PL0 Copyright (c) Steve Scherf et al.
# Submitted via: BonkEnc v1.0.8
# 
DISCID=4d087206
DTITLE=Gary Bartz - Music Is My Sanctuary
DYEAR=1977
DGENRE=Fusion
TTITLE0=Music Is My Sanctuary
TTITLE1=Carnaval De L'Esprit
TTITLE2=Love Ballad
TTITLE3=Swing Thing
TTITLE4=Oo Baby Baby
TTITLE5=Macaroni
EXTD=YEAR: 1977
EXTT0=
EXTT1=
EXTT2=
EXTT3=
EXTT4=
EXTT5=
PLAYORDER=
